{
  "header": {
    "PPQ": 384,
    "timeSignature": [
      4,
      4
    ],
    "bpm": 60,
    "name": ""
  },
  "tempo": [
    {
      "absoluteTime": 0,
      "seconds": 0,
      "bpm": 60
    }
  ],
  "timeSignature": [
    {
      "absoluteTime": 0,
      "seconds": 0,
      "numerator": 4,
      "denominator": 2,
      "click": 24,
      "notesQ": 8
    }
  ],
  "startTime": 0,
  "duration": 76,
  "tracks": [
    {
      "startTime": 0,
      "duration": 0,
      "length": 0,
      "notes": [],
      "controlChanges": {},
      "id": 0
    },
    {
      "startTime": 0,
      "duration": 76,
      "length": 145,
      "notes": [
        {
          "name": "A2",
          "midi": 45,
          "time": 0,
          "velocity": 0.3937007874015748,
          "duration": 0.5
        },
        {
          "name": "E3",
          "midi": 52,
          "time": 0.5,
          "velocity": 0.3937007874015748,
          "duration": 0.5
        },
        {
          "name": "C4",
          "midi": 60,
          "time": 1,
          "velocity": 0.3937007874015748,
          "duration": 0.5
        },
        {
          "name": "E3",
          "midi": 52,
          "time": 1.5,
          "velocity": 0.3937007874015748,
          "duration": 0.5
        },
        {
          "name": "G2",
          "midi": 43,
          "time": 2,
          "velocity": 0.3937007874015748,
          "duration": 0.5
        },
        {
          "name": "D3",
          "midi": 50,
          "time": 2.5,
          "velocity": 0.3937007874015748,
          "duration": 0.5
        },
        {
          "name": "B3",
          "midi": 59,
          "time": 3,
          "velocity": 0.3937007874015748,
          "duration": 0.5
        },
        {
          "name": "D3",
          "midi": 50,
          "time": 3.5,
          "velocity": 0.3937007874015748,
          "duration": 0.5
        },
        {
          "name": "F2",
          "midi": 41,
          "time": 4,
          "velocity": 0.3937007874015748,
          "duration": 0.5
        },
        {
          "name": "C3",
          "midi": 48,
          "time": 4.5,
          "velocity": 0.3937007874015748,
          "duration": 0.5
        },
        {
          "name": "A3",
          "midi": 57,
          "time": 5,
          "velocity": 0.3937007874015748,
          "duration": 0.5
        },
        {
          "name": "C3",
          "midi": 48,
          "time": 5.5,
          "velocity": 0.3937007874015748,
          "duration": 0.5
        },
        {
          "name": "G2",
          "midi": 43,
          "time": 6,
          "velocity": 0.3937007874015748,
          "duration": 0.5
        },
        {
          "name": "D3",
          "midi": 50,
          "time": 6.5,
          "velocity": 0.3937007874015748,
          "duration": 0.5
        },
        {
          "name": "B3",
          "midi": 59,
          "time": 7,
          "velocity": 0.3937007874015748,
          "duration": 0.5
        },
        {
          "name": "D3",
          "midi": 50,
          "time": 7.5,
          "velocity": 0.3937007874015748,
          "duration": 0.5
        },
        {
          "name": "A2",
          "midi": 45,
          "time": 8,
          "velocity": 0.3937007874015748,
          "duration": 0.5
        },
        {
          "name": "E3",
          "midi": 52,
          "time": 8.5,
          "velocity": 0.3937007874015748,
          "duration": 0.5
        },
        {
          "name": "C4",
          "midi": 60,
          "time": 9,
          "velocity": 0.3937007874015748,
          "duration": 0.5
        },
        {
          "name": "E3",
          "midi": 52,
          "time": 9.5,
          "velocity": 0.3937007874015748,
          "duration": 0.5
        },
        {
          "name": "G2",
          "midi": 43,
          "time": 10,
          "velocity": 0.3937007874015748,
          "duration": 0.5
        },
        {
          "name": "D3",
          "midi": 50,
          "time": 10.5,
          "velocity": 0.3937007874015748,
          "duration": 0.5
        },
        {
          "name": "B3",
          "midi": 59,
          "time": 11,
          "velocity": 0.3937007874015748,
          "duration": 0.5
        },
        {
          "name": "D3",
          "midi": 50,
          "time": 11.5,
          "velocity": 0.3937007874015748,
          "duration": 0.5
        },
        {
          "name": "F2",
          "midi": 41,
          "time": 12,
          "velocity": 0.3937007874015748,
          "duration": 0.5
        },
        {
          "name": "C3",
          "midi": 48,
          "time": 12.5,
          "velocity": 0.3937007874015748,
          "duration": 0.5
        },
        {
          "name": "A3",
          "midi": 57,
          "time": 13,
          "velocity": 0.3937007874015748,
          "duration": 0.5
        },
        {
          "name": "C3",
          "midi": 48,
          "time": 13.5,
          "velocity": 0.3937007874015748,
          "duration": 0.5
        },
        {
          "name": "G2",
          "midi": 43,
          "time": 14,
          "velocity": 0.3937007874015748,
          "duration": 0.5
        },
        {
          "name": "D3",
          "midi": 50,
          "time": 14.5,
          "velocity": 0.3937007874015748,
          "duration": 0.5
        },
        {
          "name": "B3",
          "midi": 59,
          "time": 15,
          "velocity": 0.3937007874015748,
          "duration": 0.5
        },
        {
          "name": "D3",
          "midi": 50,
          "time": 15.5,
          "velocity": 0.3937007874015748,
          "duration": 0.5
        },
        {
          "name": "A2",
          "midi": 45,
          "time": 16,
          "velocity": 0.3937007874015748,
          "duration": 0.5
        },
        {
          "name": "E3",
          "midi": 52,
          "time": 16.5,
          "velocity": 0.3937007874015748,
          "duration": 0.5
        },
        {
          "name": "C4",
          "midi": 60,
          "time": 17,
          "velocity": 0.3937007874015748,
          "duration": 0.5
        },
        {
          "name": "E3",
          "midi": 52,
          "time": 17.5,
          "velocity": 0.3937007874015748,
          "duration": 0.5
        },
        {
          "name": "G2",
          "midi": 43,
          "time": 18,
          "velocity": 0.3937007874015748,
          "duration": 0.5
        },
        {
          "name": "D3",
          "midi": 50,
          "time": 18.5,
          "velocity": 0.3937007874015748,
          "duration": 0.5
        },
        {
          "name": "B3",
          "midi": 59,
          "time": 19,
          "velocity": 0.3937007874015748,
          "duration": 0.5
        },
        {
          "name": "D3",
          "midi": 50,
          "time": 19.5,
          "velocity": 0.3937007874015748,
          "duration": 0.5
        },
        {
          "name": "F2",
          "midi": 41,
          "time": 20,
          "velocity": 0.3937007874015748,
          "duration": 0.5
        },
        {
          "name": "C3",
          "midi": 48,
          "time": 20.5,
          "velocity": 0.3937007874015748,
          "duration": 0.5
        },
        {
          "name": "A3",
          "midi": 57,
          "time": 21,
          "velocity": 0.3937007874015748,
          "duration": 0.5
        },
        {
          "name": "C3",
          "midi": 48,
          "time": 21.5,
          "velocity": 0.3937007874015748,
          "duration": 0.5
        },
        {
          "name": "G2",
          "midi": 43,
          "time": 22,
          "velocity": 0.3937007874015748,
          "duration": 0.5
        },
        {
          "name": "D3",
          "midi": 50,
          "time": 22.5,
          "velocity": 0.3937007874015748,
          "duration": 0.5
        },
        {
          "name": "B3",
          "midi": 59,
          "time": 23,
          "velocity": 0.3937007874015748,
          "duration": 0.5
        },
        {
          "name": "D3",
          "midi": 50,
          "time": 23.5,
          "velocity": 0.3937007874015748,
          "duration": 0.5
        },
        {
          "name": "A3",
          "midi": 57,
          "time": 24,
          "velocity": 0.3937007874015748,
          "duration": 0.5
        },
        {
          "name": "C4",
          "midi": 60,
          "time": 24.5,
          "velocity": 0.3937007874015748,
          "duration": 0.5
        },
        {
          "name": "E4",
          "midi": 64,
          "time": 25,
          "velocity": 0.3937007874015748,
          "duration": 0.5
        },
        {
          "name": "C4",
          "midi": 60,
          "time": 25.5,
          "velocity": 0.3937007874015748,
          "duration": 0.5
        },
        {
          "name": "G3",
          "midi": 55,
          "time": 26,
          "velocity": 0.3937007874015748,
          "duration": 0.5
        },
        {
          "name": "B3",
          "midi": 59,
          "time": 26.5,
          "velocity": 0.3937007874015748,
          "duration": 0.5
        },
        {
          "name": "E4",
          "midi": 64,
          "time": 27,
          "velocity": 0.3937007874015748,
          "duration": 0.5
        },
        {
          "name": "B3",
          "midi": 59,
          "time": 27.5,
          "velocity": 0.3937007874015748,
          "duration": 0.5
        },
        {
          "name": "F3",
          "midi": 53,
          "time": 28,
          "velocity": 0.3937007874015748,
          "duration": 0.5
        },
        {
          "name": "C4",
          "midi": 60,
          "time": 28.5,
          "velocity": 0.3937007874015748,
          "duration": 0.5
        },
        {
          "name": "F4",
          "midi": 65,
          "time": 29,
          "velocity": 0.3937007874015748,
          "duration": 0.5
        },
        {
          "name": "C4",
          "midi": 60,
          "time": 29.5,
          "velocity": 0.3937007874015748,
          "duration": 0.5
        },
        {
          "name": "G3",
          "midi": 55,
          "time": 30,
          "velocity": 0.3937007874015748,
          "duration": 0.5
        },
        {
          "name": "B3",
          "midi": 59,
          "time": 30.5,
          "velocity": 0.3937007874015748,
          "duration": 0.5
        },
        {
          "name": "E4",
          "midi": 64,
          "time": 31,
          "velocity": 0.3937007874015748,
          "duration": 0.5
        },
        {
          "name": "B3",
          "midi": 59,
          "time": 31.5,
          "velocity": 0.3937007874015748,
          "duration": 0.5
        },
        {
          "name": "A3",
          "midi": 57,
          "time": 32,
          "velocity": 0.3937007874015748,
          "duration": 0.5
        },
        {
          "name": "C4",
          "midi": 60,
          "time": 32.5,
          "velocity": 0.3937007874015748,
          "duration": 0.5
        },
        {
          "name": "E4",
          "midi": 64,
          "time": 33,
          "velocity": 0.3937007874015748,
          "duration": 0.5
        },
        {
          "name": "C4",
          "midi": 60,
          "time": 33.5,
          "velocity": 0.3937007874015748,
          "duration": 0.5
        },
        {
          "name": "G3",
          "midi": 55,
          "time": 34,
          "velocity": 0.3937007874015748,
          "duration": 0.5
        },
        {
          "name": "B3",
          "midi": 59,
          "time": 34.5,
          "velocity": 0.3937007874015748,
          "duration": 0.5
        },
        {
          "name": "E4",
          "midi": 64,
          "time": 35,
          "velocity": 0.3937007874015748,
          "duration": 0.5
        },
        {
          "name": "B3",
          "midi": 59,
          "time": 35.5,
          "velocity": 0.3937007874015748,
          "duration": 0.5
        },
        {
          "name": "F3",
          "midi": 53,
          "time": 36,
          "velocity": 0.3937007874015748,
          "duration": 0.5
        },
        {
          "name": "C4",
          "midi": 60,
          "time": 36.5,
          "velocity": 0.3937007874015748,
          "duration": 0.5
        },
        {
          "name": "F4",
          "midi": 65,
          "time": 37,
          "velocity": 0.3937007874015748,
          "duration": 0.5
        },
        {
          "name": "C4",
          "midi": 60,
          "time": 37.5,
          "velocity": 0.3937007874015748,
          "duration": 0.5
        },
        {
          "name": "G3",
          "midi": 55,
          "time": 38,
          "velocity": 0.3937007874015748,
          "duration": 0.5
        },
        {
          "name": "B3",
          "midi": 59,
          "time": 38.5,
          "velocity": 0.3937007874015748,
          "duration": 0.5
        },
        {
          "name": "E4",
          "midi": 64,
          "time": 39,
          "velocity": 0.3937007874015748,
          "duration": 0.5
        },
        {
          "name": "B3",
          "midi": 59,
          "time": 39.5,
          "velocity": 0.3937007874015748,
          "duration": 0.5
        },
        {
          "name": "A3",
          "midi": 57,
          "time": 40,
          "velocity": 0.3937007874015748,
          "duration": 0.5
        },
        {
          "name": "C4",
          "midi": 60,
          "time": 40.5,
          "velocity": 0.3937007874015748,
          "duration": 0.5
        },
        {
          "name": "E4",
          "midi": 64,
          "time": 41,
          "velocity": 0.3937007874015748,
          "duration": 0.5
        },
        {
          "name": "C4",
          "midi": 60,
          "time": 41.5,
          "velocity": 0.3937007874015748,
          "duration": 0.5
        },
        {
          "name": "G3",
          "midi": 55,
          "time": 42,
          "velocity": 0.3937007874015748,
          "duration": 0.5
        },
        {
          "name": "B3",
          "midi": 59,
          "time": 42.5,
          "velocity": 0.3937007874015748,
          "duration": 0.5
        },
        {
          "name": "E4",
          "midi": 64,
          "time": 43,
          "velocity": 0.3937007874015748,
          "duration": 0.5
        },
        {
          "name": "B3",
          "midi": 59,
          "time": 43.5,
          "velocity": 0.3937007874015748,
          "duration": 0.5
        },
        {
          "name": "F3",
          "midi": 53,
          "time": 44,
          "velocity": 0.3937007874015748,
          "duration": 0.5
        },
        {
          "name": "C4",
          "midi": 60,
          "time": 44.5,
          "velocity": 0.3937007874015748,
          "duration": 0.5
        },
        {
          "name": "F4",
          "midi": 65,
          "time": 45,
          "velocity": 0.3937007874015748,
          "duration": 0.5
        },
        {
          "name": "C4",
          "midi": 60,
          "time": 45.5,
          "velocity": 0.3937007874015748,
          "duration": 0.5
        },
        {
          "name": "G3",
          "midi": 55,
          "time": 46,
          "velocity": 0.3937007874015748,
          "duration": 0.5
        },
        {
          "name": "B3",
          "midi": 59,
          "time": 46.5,
          "velocity": 0.3937007874015748,
          "duration": 0.5
        },
        {
          "name": "E4",
          "midi": 64,
          "time": 47,
          "velocity": 0.3937007874015748,
          "duration": 0.5
        },
        {
          "name": "B3",
          "midi": 59,
          "time": 47.5,
          "velocity": 0.3937007874015748,
          "duration": 0.5
        },
        {
          "name": "A3",
          "midi": 57,
          "time": 48,
          "velocity": 0.3937007874015748,
          "duration": 0.5
        },
        {
          "name": "C4",
          "midi": 60,
          "time": 48.5,
          "velocity": 0.3937007874015748,
          "duration": 0.5
        },
        {
          "name": "E4",
          "midi": 64,
          "time": 49,
          "velocity": 0.3937007874015748,
          "duration": 0.5
        },
        {
          "name": "C4",
          "midi": 60,
          "time": 49.5,
          "velocity": 0.3937007874015748,
          "duration": 0.5
        },
        {
          "name": "G3",
          "midi": 55,
          "time": 50,
          "velocity": 0.3937007874015748,
          "duration": 0.5
        },
        {
          "name": "B3",
          "midi": 59,
          "time": 50.5,
          "velocity": 0.3937007874015748,
          "duration": 0.5
        },
        {
          "name": "E4",
          "midi": 64,
          "time": 51,
          "velocity": 0.3937007874015748,
          "duration": 0.5
        },
        {
          "name": "B3",
          "midi": 59,
          "time": 51.5,
          "velocity": 0.3937007874015748,
          "duration": 0.5
        },
        {
          "name": "F3",
          "midi": 53,
          "time": 52,
          "velocity": 0.3937007874015748,
          "duration": 0.5
        },
        {
          "name": "C4",
          "midi": 60,
          "time": 52.5,
          "velocity": 0.3937007874015748,
          "duration": 0.5
        },
        {
          "name": "F4",
          "midi": 65,
          "time": 53,
          "velocity": 0.3937007874015748,
          "duration": 0.5
        },
        {
          "name": "C4",
          "midi": 60,
          "time": 53.5,
          "velocity": 0.3937007874015748,
          "duration": 0.5
        },
        {
          "name": "G3",
          "midi": 55,
          "time": 54,
          "velocity": 0.3937007874015748,
          "duration": 0.5
        },
        {
          "name": "B3",
          "midi": 59,
          "time": 54.5,
          "velocity": 0.3937007874015748,
          "duration": 0.5
        },
        {
          "name": "E4",
          "midi": 64,
          "time": 55,
          "velocity": 0.3937007874015748,
          "duration": 0.5
        },
        {
          "name": "B3",
          "midi": 59,
          "time": 55.5,
          "velocity": 0.3937007874015748,
          "duration": 0.5
        },
        {
          "name": "A2",
          "midi": 45,
          "time": 56,
          "velocity": 0.3937007874015748,
          "duration": 0.5
        },
        {
          "name": "E3",
          "midi": 52,
          "time": 56.5,
          "velocity": 0.3937007874015748,
          "duration": 0.5
        },
        {
          "name": "C4",
          "midi": 60,
          "time": 57,
          "velocity": 0.3937007874015748,
          "duration": 0.5
        },
        {
          "name": "E3",
          "midi": 52,
          "time": 57.5,
          "velocity": 0.3937007874015748,
          "duration": 0.5
        },
        {
          "name": "G2",
          "midi": 43,
          "time": 58,
          "velocity": 0.3937007874015748,
          "duration": 0.5
        },
        {
          "name": "D3",
          "midi": 50,
          "time": 58.5,
          "velocity": 0.3937007874015748,
          "duration": 0.5
        },
        {
          "name": "B3",
          "midi": 59,
          "time": 59,
          "velocity": 0.3937007874015748,
          "duration": 0.5
        },
        {
          "name": "D3",
          "midi": 50,
          "time": 59.5,
          "velocity": 0.3937007874015748,
          "duration": 0.5
        },
        {
          "name": "F2",
          "midi": 41,
          "time": 60,
          "velocity": 0.3937007874015748,
          "duration": 0.5
        },
        {
          "name": "C3",
          "midi": 48,
          "time": 60.5,
          "velocity": 0.3937007874015748,
          "duration": 0.5
        },
        {
          "name": "A3",
          "midi": 57,
          "time": 61,
          "velocity": 0.3937007874015748,
          "duration": 0.5
        },
        {
          "name": "C3",
          "midi": 48,
          "time": 61.5,
          "velocity": 0.3937007874015748,
          "duration": 0.5
        },
        {
          "name": "G2",
          "midi": 43,
          "time": 62,
          "velocity": 0.3937007874015748,
          "duration": 0.5
        },
        {
          "name": "D3",
          "midi": 50,
          "time": 62.5,
          "velocity": 0.3937007874015748,
          "duration": 0.5
        },
        {
          "name": "B3",
          "midi": 59,
          "time": 63,
          "velocity": 0.3937007874015748,
          "duration": 0.5
        },
        {
          "name": "D3",
          "midi": 50,
          "time": 63.5,
          "velocity": 0.3937007874015748,
          "duration": 0.5
        },
        {
          "name": "A2",
          "midi": 45,
          "time": 64,
          "velocity": 0.3937007874015748,
          "duration": 0.5
        },
        {
          "name": "E3",
          "midi": 52,
          "time": 64.5,
          "velocity": 0.3937007874015748,
          "duration": 0.5
        },
        {
          "name": "C4",
          "midi": 60,
          "time": 65,
          "velocity": 0.3937007874015748,
          "duration": 0.5
        },
        {
          "name": "E3",
          "midi": 52,
          "time": 65.5,
          "velocity": 0.3937007874015748,
          "duration": 0.5
        },
        {
          "name": "G2",
          "midi": 43,
          "time": 66,
          "velocity": 0.3937007874015748,
          "duration": 0.5
        },
        {
          "name": "D3",
          "midi": 50,
          "time": 66.5,
          "velocity": 0.3937007874015748,
          "duration": 0.5
        },
        {
          "name": "B3",
          "midi": 59,
          "time": 67,
          "velocity": 0.3937007874015748,
          "duration": 0.5
        },
        {
          "name": "D3",
          "midi": 50,
          "time": 67.5,
          "velocity": 0.3937007874015748,
          "duration": 0.5
        },
        {
          "name": "F2",
          "midi": 41,
          "time": 68,
          "velocity": 0.3937007874015748,
          "duration": 0.5
        },
        {
          "name": "C3",
          "midi": 48,
          "time": 68.5,
          "velocity": 0.3937007874015748,
          "duration": 0.5
        },
        {
          "name": "A3",
          "midi": 57,
          "time": 69,
          "velocity": 0.3937007874015748,
          "duration": 0.5
        },
        {
          "name": "C3",
          "midi": 48,
          "time": 69.5,
          "velocity": 0.3937007874015748,
          "duration": 0.5
        },
        {
          "name": "G2",
          "midi": 43,
          "time": 70,
          "velocity": 0.3937007874015748,
          "duration": 0.5
        },
        {
          "name": "D3",
          "midi": 50,
          "time": 70.5,
          "velocity": 0.3937007874015748,
          "duration": 0.5
        },
        {
          "name": "B3",
          "midi": 59,
          "time": 71,
          "velocity": 0.3937007874015748,
          "duration": 0.5
        },
        {
          "name": "D3",
          "midi": 50,
          "time": 71.5,
          "velocity": 0.3937007874015748,
          "duration": 0.5
        },
        {
          "name": "A2",
          "midi": 45,
          "time": 72,
          "velocity": 0.3937007874015748,
          "duration": 4
        }
      ],
      "controlChanges": {},
      "id": 1,
      "name": "Elec. Piano (Classic)",
      "instrumentNumber": 0,
      "instrument": "acoustic grand piano",
      "instrumentFamily": "piano",
      "channelNumber": 0,
      "isPercussion": false
    },
    {
      "startTime": 7.5,
      "duration": 76,
      "length": 125,
      "notes": [
        {
          "name": "A4",
          "midi": 69,
          "time": 7.5,
          "velocity": 0.3937007874015748,
          "duration": 0.25
        },
        {
          "name": "B4",
          "midi": 71,
          "time": 7.75,
          "velocity": 0.3937007874015748,
          "duration": 0.25
        },
        {
          "name": "A4",
          "midi": 69,
          "time": 8,
          "velocity": 0.3937007874015748,
          "duration": 1
        },
        {
          "name": "C5",
          "midi": 72,
          "time": 8,
          "velocity": 0.3937007874015748,
          "duration": 1
        },
        {
          "name": "B4",
          "midi": 71,
          "time": 9,
          "velocity": 0.3937007874015748,
          "duration": 1
        },
        {
          "name": "G4",
          "midi": 67,
          "time": 10,
          "velocity": 0.3937007874015748,
          "duration": 1
        },
        {
          "name": "C5",
          "midi": 72,
          "time": 10,
          "velocity": 0.3937007874015748,
          "duration": 1
        },
        {
          "name": "D5",
          "midi": 74,
          "time": 11,
          "velocity": 0.3937007874015748,
          "duration": 1
        },
        {
          "name": "A4",
          "midi": 69,
          "time": 12,
          "velocity": 0.3937007874015748,
          "duration": 0.75
        },
        {
          "name": "C4",
          "midi": 60,
          "time": 12,
          "velocity": 0.3937007874015748,
          "duration": 0.75
        },
        {
          "name": "C4",
          "midi": 60,
          "time": 12.75,
          "velocity": 0.3937007874015748,
          "duration": 0.75
        },
        {
          "name": "G4",
          "midi": 67,
          "time": 12.75,
          "velocity": 0.3937007874015748,
          "duration": 0.75
        },
        {
          "name": "C4",
          "midi": 60,
          "time": 13.5,
          "velocity": 0.3937007874015748,
          "duration": 0.5
        },
        {
          "name": "D4",
          "midi": 62,
          "time": 14,
          "velocity": 0.3937007874015748,
          "duration": 0.75
        },
        {
          "name": "G3",
          "midi": 55,
          "time": 14,
          "velocity": 0.3937007874015748,
          "duration": 2
        },
        {
          "name": "E4",
          "midi": 64,
          "time": 14.75,
          "velocity": 0.3937007874015748,
          "duration": 0.75
        },
        {
          "name": "C4",
          "midi": 60,
          "time": 15.5,
          "velocity": 0.3937007874015748,
          "duration": 0.25
        },
        {
          "name": "B3",
          "midi": 59,
          "time": 15.75,
          "velocity": 0.3937007874015748,
          "duration": 0.25
        },
        {
          "name": "A3",
          "midi": 57,
          "time": 16,
          "velocity": 0.3937007874015748,
          "duration": 2
        },
        {
          "name": "C4",
          "midi": 60,
          "time": 16,
          "velocity": 0.3937007874015748,
          "duration": 2
        },
        {
          "name": "E3",
          "midi": 52,
          "time": 16,
          "velocity": 0.3937007874015748,
          "duration": 2
        },
        {
          "name": "B3",
          "midi": 59,
          "time": 18,
          "velocity": 0.3937007874015748,
          "duration": 2
        },
        {
          "name": "G3",
          "midi": 55,
          "time": 18,
          "velocity": 0.3937007874015748,
          "duration": 2
        },
        {
          "name": "D4",
          "midi": 62,
          "time": 18,
          "velocity": 0.3937007874015748,
          "duration": 2
        },
        {
          "name": "C3",
          "midi": 48,
          "time": 20,
          "velocity": 0.3937007874015748,
          "duration": 0.75
        },
        {
          "name": "F3",
          "midi": 53,
          "time": 20,
          "velocity": 0.3937007874015748,
          "duration": 2
        },
        {
          "name": "A3",
          "midi": 57,
          "time": 20,
          "velocity": 0.3937007874015748,
          "duration": 0.75
        },
        {
          "name": "C3",
          "midi": 48,
          "time": 20.75,
          "velocity": 0.3937007874015748,
          "duration": 0.75
        },
        {
          "name": "G3",
          "midi": 55,
          "time": 20.75,
          "velocity": 0.3937007874015748,
          "duration": 0.75
        },
        {
          "name": "C3",
          "midi": 48,
          "time": 21.5,
          "velocity": 0.3937007874015748,
          "duration": 0.5
        },
        {
          "name": "D3",
          "midi": 50,
          "time": 22,
          "velocity": 0.3937007874015748,
          "duration": 0.75
        },
        {
          "name": "G2",
          "midi": 43,
          "time": 22,
          "velocity": 0.3937007874015748,
          "duration": 2
        },
        {
          "name": "E3",
          "midi": 52,
          "time": 22.75,
          "velocity": 0.3937007874015748,
          "duration": 0.75
        },
        {
          "name": "C3",
          "midi": 48,
          "time": 23.5,
          "velocity": 0.3937007874015748,
          "duration": 0.25
        },
        {
          "name": "B2",
          "midi": 47,
          "time": 23.75,
          "velocity": 0.3937007874015748,
          "duration": 0.25
        },
        {
          "name": "A2",
          "midi": 45,
          "time": 24,
          "velocity": 0.3937007874015748,
          "duration": 1.75
        },
        {
          "name": "G2",
          "midi": 43,
          "time": 25.75,
          "velocity": 0.3937007874015748,
          "duration": 0.25
        },
        {
          "name": "B2",
          "midi": 47,
          "time": 26,
          "velocity": 0.3937007874015748,
          "duration": 1.5
        },
        {
          "name": "A2",
          "midi": 45,
          "time": 27.5,
          "velocity": 0.3937007874015748,
          "duration": 0.25
        },
        {
          "name": "B2",
          "midi": 47,
          "time": 27.75,
          "velocity": 0.3937007874015748,
          "duration": 0.25
        },
        {
          "name": "C3",
          "midi": 48,
          "time": 28,
          "velocity": 0.3937007874015748,
          "duration": 0.75
        },
        {
          "name": "B2",
          "midi": 47,
          "time": 28.75,
          "velocity": 0.3937007874015748,
          "duration": 0.75
        },
        {
          "name": "C3",
          "midi": 48,
          "time": 29.5,
          "velocity": 0.3937007874015748,
          "duration": 0.5
        },
        {
          "name": "G2",
          "midi": 43,
          "time": 30,
          "velocity": 0.3937007874015748,
          "duration": 0.75
        },
        {
          "name": "D3",
          "midi": 50,
          "time": 30,
          "velocity": 0.3937007874015748,
          "duration": 0.75
        },
        {
          "name": "C3",
          "midi": 48,
          "time": 30.75,
          "velocity": 0.3937007874015748,
          "duration": 0.75
        },
        {
          "name": "G2",
          "midi": 43,
          "time": 30.75,
          "velocity": 0.3937007874015748,
          "duration": 0.75
        },
        {
          "name": "G2",
          "midi": 43,
          "time": 31.5,
          "velocity": 0.3937007874015748,
          "duration": 0.5
        },
        {
          "name": "B2",
          "midi": 47,
          "time": 31.5,
          "velocity": 0.3937007874015748,
          "duration": 0.5
        },
        {
          "name": "A2",
          "midi": 45,
          "time": 32,
          "velocity": 0.3937007874015748,
          "duration": 1.75
        },
        {
          "name": "G2",
          "midi": 43,
          "time": 33.75,
          "velocity": 0.3937007874015748,
          "duration": 0.25
        },
        {
          "name": "B2",
          "midi": 47,
          "time": 34,
          "velocity": 0.3937007874015748,
          "duration": 1.5
        },
        {
          "name": "A2",
          "midi": 45,
          "time": 35.5,
          "velocity": 0.3937007874015748,
          "duration": 0.25
        },
        {
          "name": "B2",
          "midi": 47,
          "time": 35.75,
          "velocity": 0.3937007874015748,
          "duration": 0.25
        },
        {
          "name": "C3",
          "midi": 48,
          "time": 36,
          "velocity": 0.3937007874015748,
          "duration": 0.75
        },
        {
          "name": "F3",
          "midi": 53,
          "time": 36,
          "velocity": 0.3937007874015748,
          "duration": 0.75
        },
        {
          "name": "E3",
          "midi": 52,
          "time": 36.75,
          "velocity": 0.3937007874015748,
          "duration": 0.75
        },
        {
          "name": "C3",
          "midi": 48,
          "time": 36.75,
          "velocity": 0.3937007874015748,
          "duration": 0.75
        },
        {
          "name": "F3",
          "midi": 53,
          "time": 37.5,
          "velocity": 0.3937007874015748,
          "duration": 0.5
        },
        {
          "name": "C3",
          "midi": 48,
          "time": 37.5,
          "velocity": 0.3937007874015748,
          "duration": 0.5
        },
        {
          "name": "D3",
          "midi": 50,
          "time": 38,
          "velocity": 0.3937007874015748,
          "duration": 0.75
        },
        {
          "name": "G3",
          "midi": 55,
          "time": 38,
          "velocity": 0.3937007874015748,
          "duration": 0.75
        },
        {
          "name": "C3",
          "midi": 48,
          "time": 38.75,
          "velocity": 0.3937007874015748,
          "duration": 0.75
        },
        {
          "name": "G3",
          "midi": 55,
          "time": 38.75,
          "velocity": 0.3937007874015748,
          "duration": 0.75
        },
        {
          "name": "B2",
          "midi": 47,
          "time": 39.5,
          "velocity": 0.3937007874015748,
          "duration": 0.5
        },
        {
          "name": "G3",
          "midi": 55,
          "time": 39.5,
          "velocity": 0.3937007874015748,
          "duration": 0.5
        },
        {
          "name": "A3",
          "midi": 57,
          "time": 40,
          "velocity": 0.3937007874015748,
          "duration": 6
        },
        {
          "name": "A2",
          "midi": 45,
          "time": 40,
          "velocity": 0.3937007874015748,
          "duration": 6
        },
        {
          "name": "G3",
          "midi": 55,
          "time": 46,
          "velocity": 0.3937007874015748,
          "duration": 0.75
        },
        {
          "name": "D4",
          "midi": 62,
          "time": 46,
          "velocity": 0.3937007874015748,
          "duration": 0.75
        },
        {
          "name": "C4",
          "midi": 60,
          "time": 46.75,
          "velocity": 0.3937007874015748,
          "duration": 0.75
        },
        {
          "name": "G3",
          "midi": 55,
          "time": 46.75,
          "velocity": 0.3937007874015748,
          "duration": 0.75
        },
        {
          "name": "G3",
          "midi": 55,
          "time": 47.5,
          "velocity": 0.3937007874015748,
          "duration": 0.5
        },
        {
          "name": "B3",
          "midi": 59,
          "time": 47.5,
          "velocity": 0.3937007874015748,
          "duration": 0.5
        },
        {
          "name": "A2",
          "midi": 45,
          "time": 48,
          "velocity": 0.3937007874015748,
          "duration": 6
        },
        {
          "name": "A3",
          "midi": 57,
          "time": 48,
          "velocity": 0.3937007874015748,
          "duration": 6
        },
        {
          "name": "G3",
          "midi": 55,
          "time": 54,
          "velocity": 0.3937007874015748,
          "duration": 0.75
        },
        {
          "name": "D4",
          "midi": 62,
          "time": 54,
          "velocity": 0.3937007874015748,
          "duration": 0.75
        },
        {
          "name": "G3",
          "midi": 55,
          "time": 54.75,
          "velocity": 0.3937007874015748,
          "duration": 0.75
        },
        {
          "name": "E4",
          "midi": 64,
          "time": 54.75,
          "velocity": 0.3937007874015748,
          "duration": 0.75
        },
        {
          "name": "B3",
          "midi": 59,
          "time": 55.5,
          "velocity": 0.3937007874015748,
          "duration": 0.5
        },
        {
          "name": "G3",
          "midi": 55,
          "time": 55.5,
          "velocity": 0.3937007874015748,
          "duration": 0.5
        },
        {
          "name": "A3",
          "midi": 57,
          "time": 56,
          "velocity": 0.3937007874015748,
          "duration": 1.75
        },
        {
          "name": "G3",
          "midi": 55,
          "time": 57.75,
          "velocity": 0.3937007874015748,
          "duration": 0.125
        },
        {
          "name": "A3",
          "midi": 57,
          "time": 57.875,
          "velocity": 0.3937007874015748,
          "duration": 0.125
        },
        {
          "name": "B3",
          "midi": 59,
          "time": 58,
          "velocity": 0.3937007874015748,
          "duration": 1.75
        },
        {
          "name": "A3",
          "midi": 57,
          "time": 59.75,
          "velocity": 0.3937007874015748,
          "duration": 0.125
        },
        {
          "name": "B3",
          "midi": 59,
          "time": 59.875,
          "velocity": 0.3937007874015748,
          "duration": 0.125
        },
        {
          "name": "F3",
          "midi": 53,
          "time": 60,
          "velocity": 0.3937007874015748,
          "duration": 0.75
        },
        {
          "name": "C4",
          "midi": 60,
          "time": 60,
          "velocity": 0.3937007874015748,
          "duration": 0.75
        },
        {
          "name": "A3",
          "midi": 57,
          "time": 60,
          "velocity": 0.3937007874015748,
          "duration": 0.75
        },
        {
          "name": "B3",
          "midi": 59,
          "time": 60.75,
          "velocity": 0.3937007874015748,
          "duration": 0.75
        },
        {
          "name": "F3",
          "midi": 53,
          "time": 60.75,
          "velocity": 0.3937007874015748,
          "duration": 0.75
        },
        {
          "name": "F3",
          "midi": 53,
          "time": 61.5,
          "velocity": 0.3937007874015748,
          "duration": 0.5
        },
        {
          "name": "A3",
          "midi": 57,
          "time": 61.5,
          "velocity": 0.3937007874015748,
          "duration": 0.5
        },
        {
          "name": "D4",
          "midi": 62,
          "time": 62,
          "velocity": 0.3937007874015748,
          "duration": 0.75
        },
        {
          "name": "B3",
          "midi": 59,
          "time": 62,
          "velocity": 0.3937007874015748,
          "duration": 0.75
        },
        {
          "name": "G3",
          "midi": 55,
          "time": 62,
          "velocity": 0.3937007874015748,
          "duration": 0.75
        },
        {
          "name": "C4",
          "midi": 60,
          "time": 62.75,
          "velocity": 0.3937007874015748,
          "duration": 0.75
        },
        {
          "name": "G3",
          "midi": 55,
          "time": 62.75,
          "velocity": 0.3937007874015748,
          "duration": 0.75
        },
        {
          "name": "B3",
          "midi": 59,
          "time": 63.5,
          "velocity": 0.3937007874015748,
          "duration": 0.5
        },
        {
          "name": "G3",
          "midi": 55,
          "time": 63.5,
          "velocity": 0.3937007874015748,
          "duration": 0.5
        },
        {
          "name": "A4",
          "midi": 69,
          "time": 64,
          "velocity": 0.3937007874015748,
          "duration": 1.75
        },
        {
          "name": "G4",
          "midi": 67,
          "time": 65.75,
          "velocity": 0.3937007874015748,
          "duration": 0.125
        },
        {
          "name": "A4",
          "midi": 69,
          "time": 65.875,
          "velocity": 0.3937007874015748,
          "duration": 0.125
        },
        {
          "name": "B4",
          "midi": 71,
          "time": 66,
          "velocity": 0.3937007874015748,
          "duration": 1.75
        },
        {
          "name": "A4",
          "midi": 69,
          "time": 67.75,
          "velocity": 0.3937007874015748,
          "duration": 0.125
        },
        {
          "name": "B4",
          "midi": 71,
          "time": 67.875,
          "velocity": 0.3937007874015748,
          "duration": 0.125
        },
        {
          "name": "A4",
          "midi": 69,
          "time": 68,
          "velocity": 0.3937007874015748,
          "duration": 0.75
        },
        {
          "name": "C5",
          "midi": 72,
          "time": 68,
          "velocity": 0.3937007874015748,
          "duration": 0.75
        },
        {
          "name": "F5",
          "midi": 77,
          "time": 68,
          "velocity": 0.3937007874015748,
          "duration": 0.75
        },
        {
          "name": "A4",
          "midi": 69,
          "time": 68.75,
          "velocity": 0.3937007874015748,
          "duration": 0.75
        },
        {
          "name": "C5",
          "midi": 72,
          "time": 68.75,
          "velocity": 0.3937007874015748,
          "duration": 0.75
        },
        {
          "name": "E5",
          "midi": 76,
          "time": 68.75,
          "velocity": 0.3937007874015748,
          "duration": 0.75
        },
        {
          "name": "A4",
          "midi": 69,
          "time": 69.5,
          "velocity": 0.3937007874015748,
          "duration": 0.5
        },
        {
          "name": "C5",
          "midi": 72,
          "time": 69.5,
          "velocity": 0.3937007874015748,
          "duration": 0.5
        },
        {
          "name": "D5",
          "midi": 74,
          "time": 70,
          "velocity": 0.3937007874015748,
          "duration": 0.75
        },
        {
          "name": "B4",
          "midi": 71,
          "time": 70,
          "velocity": 0.3937007874015748,
          "duration": 0.75
        },
        {
          "name": "G5",
          "midi": 79,
          "time": 70,
          "velocity": 0.3937007874015748,
          "duration": 0.75
        },
        {
          "name": "F5",
          "midi": 77,
          "time": 70.75,
          "velocity": 0.3937007874015748,
          "duration": 0.75
        },
        {
          "name": "D5",
          "midi": 74,
          "time": 70.75,
          "velocity": 0.3937007874015748,
          "duration": 0.75
        },
        {
          "name": "B4",
          "midi": 71,
          "time": 70.75,
          "velocity": 0.3937007874015748,
          "duration": 0.75
        },
        {
          "name": "B4",
          "midi": 71,
          "time": 71.5,
          "velocity": 0.3937007874015748,
          "duration": 0.5
        },
        {
          "name": "E5",
          "midi": 76,
          "time": 71.5,
          "velocity": 0.3937007874015748,
          "duration": 0.5
        },
        {
          "name": "A4",
          "midi": 69,
          "time": 72,
          "velocity": 0.3937007874015748,
          "duration": 4
        }
      ],
      "controlChanges": {},
      "id": 2,
      "name": "Grand Piano (Classic)",
      "instrumentNumber": 0,
      "instrument": "acoustic grand piano",
      "instrumentFamily": "piano",
      "channelNumber": 1,
      "isPercussion": false
    }
  ]
}
